<svg xmlns="http://www.w3.org/2000/svg" viewBox="0 0 60 104" width="60" height="104">
  <defs>
    <linearGradient id="goldFlame" x1="0" y1="0" x2="0" y2="1">
      <stop offset="0" stop-color="#d9b873"/>
      <stop offset="0.55" stop-color="#c19a4a"/>
      <stop offset="1" stop-color="#a8843f"/>
    </linearGradient>
  </defs>
  <g fill="none" stroke="url(#goldFlame)" stroke-width="3" stroke-linecap="round" stroke-linejoin="round">
    <path d="M30 5 C 47 34 53 49 47 65 C 44 77 38 85 30 85 C 22 85 16 77 13 65 C 7 49 13 34 30 5 Z"/>
    <path d="M30 30 C 39 46 41 57 37 67 C 35 73 32 77 30 77 C 27 77 25 71 25 63 C 25 50 26 40 30 30 Z"/>
    <path d="M30 85 C 20 91 9 91 1 88"/>
    <path d="M30 85 C 40 91 51 91 59 88"/>
  </g>
</svg>
